<svg width="160" height="49" viewBox="0 0 160 49" fill="none" xmlns="http://www.w3.org/2000/svg">
<g clip-path="url(#clip0_0_368)">
<path d="M72.9909 28.4399H74.9033V24.9701L78.2154 19.7654H76.0467L73.957 23.2352L71.9263 19.7851H69.6986L73.0107 25.0293V28.4399H72.9909ZM61.6746 28.4399H63.5672V22.9395L67.7468 28.4399H69.3634V19.7851H67.4905V25.1081L63.4292 19.7851H61.6746V28.4399ZM55.4644 24.8124L56.6079 22.0129L57.7514 24.8124H55.4644ZM52.0538 28.4399H54.0055L54.7941 26.4882H58.4414L59.23 28.4399H61.2015L57.5345 19.726H55.7602L52.0538 28.4399ZM48.1897 24.1421V21.5397H49.6486C50.5949 21.5397 51.1863 21.9932 51.1863 22.8409V22.8606C51.1863 23.6098 50.6343 24.1618 49.688 24.1618H48.1897V24.1421ZM46.2773 28.4399H48.1897V25.8376H49.6288C51.5609 25.8376 53.1184 24.8124 53.1184 22.8015C53.1184 21.0272 51.8763 19.8048 49.8063 19.8048H46.297V28.4597L46.2773 28.4399ZM36.4199 28.4399H38.2928V22.8015L40.698 26.4685H40.7572L43.1821 22.8015V28.4399H45.0747V19.7851H43.0244L40.7572 23.4521L38.49 19.7851H36.4396V28.4399H36.4199ZM31.0378 26.8233C29.5 26.8233 28.4157 25.601 28.4157 24.1224V24.083C28.4157 22.6043 29.4803 21.4017 30.9983 21.4017C32.5361 21.4017 33.6204 22.6241 33.6204 24.1027V24.1421C33.6204 25.6207 32.5558 26.8233 31.0378 26.8233ZM30.9983 28.5977C31.5975 28.6161 32.1944 28.5141 32.7533 28.2974C33.3123 28.0808 33.8221 27.7541 34.2524 27.3367C34.6827 26.9193 35.0247 26.4196 35.2582 25.8675C35.4917 25.3153 35.6119 24.7219 35.6116 24.1224V24.083C35.6116 21.6383 33.6993 19.6471 31.0378 19.6471C28.3763 19.6471 26.4245 21.658 26.4245 24.1224C26.4245 26.5867 28.3368 28.5779 30.9983 28.5779M22.8561 28.5779C24.5319 28.5779 25.5176 27.9865 26.4048 27.0402L25.1824 25.8179C24.5121 26.429 23.901 26.8233 22.9152 26.8233C21.4366 26.8233 20.4115 25.601 20.4115 24.1224V24.083C20.4115 22.6043 21.4563 21.4017 22.9152 21.4017C23.7827 21.4017 24.453 21.7763 25.1233 22.3875L26.3456 20.9877C25.5373 20.1991 24.5713 19.6471 22.935 19.6471C22.341 19.631 21.75 19.7355 21.1976 19.9542C20.6452 20.1729 20.1428 20.5013 19.7209 20.9196C19.2989 21.3379 18.9661 21.8373 18.7426 22.3878C18.519 22.9383 18.4094 23.5284 18.4203 24.1224C18.4203 26.6262 20.3129 28.5779 22.8561 28.5779ZM7.93196 27.4739V19.9823H5.98019L3.83128 23.3732L1.68236 19.9823H-0.22998V29.2482L-0.170836 29.9383C0.322035 29.4848 0.893765 29.1102 1.52464 28.7948V22.8015L3.81156 26.1924H3.85099L6.15763 22.7621V27.8879C6.7885 27.9076 7.37995 28.0062 7.93196 28.1442M16.3305 19.9823H14.2801L12.2889 23.1958L10.3175 19.9823H8.2474L11.4018 24.8321V28.3611H13.1761V24.8124L16.3305 19.9823ZM80.0883 19.6471V28.3611H105.836V19.6471H80.0883Z" fill="white"/>
<path d="M100.71 24.4774L101.163 23.3733L101.617 24.4774H100.71ZM99.3694 25.9165H100.119L100.434 25.1477H101.873L102.189 25.9165H102.977L101.499 22.4862H100.809L99.3497 25.9165H99.3694ZM96.2151 25.9165H96.9445V24.8717L97.3388 24.4774L98.4034 25.9165H99.3103L97.8514 23.9451L99.2314 22.5059H98.3443L96.9642 24.0042V22.5059H96.2151V25.9165ZM94.3027 25.956C95.0322 25.956 95.5447 25.5814 95.5447 24.9111C95.5447 24.3196 95.1504 24.0633 94.4604 23.8662C93.869 23.7282 93.731 23.6493 93.731 23.4325C93.731 23.2353 93.8887 23.117 94.1647 23.117C94.4878 23.1351 94.7975 23.2521 95.0519 23.4522L95.4462 22.9002C95.0888 22.6133 94.6426 22.46 94.1844 22.4664C93.4944 22.4664 93.0015 22.8607 93.0015 23.4916C93.0015 24.1619 93.4353 24.3591 94.1253 24.5365C94.6773 24.6745 94.7956 24.7731 94.7956 24.9702C94.7956 25.1674 94.6182 25.3054 94.3224 25.3054C93.9281 25.3054 93.593 25.1477 93.2973 24.8914L92.8635 25.4237C93.2624 25.7706 93.7741 25.9599 94.3027 25.956ZM90.0837 25.9165H92.5284V25.2265H90.8329V22.5059H90.064V25.9165H90.0837ZM87.5997 25.2857C87.0082 25.2857 86.5745 24.7928 86.5745 24.2013C86.5745 23.6099 86.9885 23.1367 87.5997 23.1367C88.1911 23.1367 88.6248 23.6296 88.6248 24.2013C88.6248 24.7928 88.2108 25.2857 87.5997 25.2857ZM87.5997 25.9757C87.836 25.9809 88.071 25.9389 88.2908 25.8521C88.5106 25.7653 88.7109 25.6354 88.8799 25.4701C89.0488 25.3049 89.1831 25.1075 89.2747 24.8896C89.3663 24.6717 89.4135 24.4377 89.4134 24.2013C89.4134 23.2156 88.6643 22.4467 87.5997 22.4467C87.3634 22.4415 87.1284 22.4835 86.9085 22.5703C86.6887 22.6571 86.4884 22.787 86.3195 22.9523C86.1505 23.1176 86.0163 23.3149 85.9246 23.5328C85.833 23.7507 85.7858 23.9847 85.7859 24.2211C85.7859 25.1871 86.5548 25.9757 87.5997 25.9757ZM83.4596 24.2211V23.1959H84.0313C84.4059 23.1959 84.6227 23.393 84.6227 23.7085C84.6227 24.0239 84.4256 24.2408 84.0313 24.2408H83.4398L83.4596 24.2211ZM82.6907 25.9165H83.4398V24.8914H84.0116C84.7804 24.8914 85.3916 24.4971 85.3916 23.7085V23.6888C85.3916 22.979 84.8987 22.5059 84.0904 22.5059H82.7104V25.9165H82.6907Z" fill="#333333"/>
</g>
<defs>
<clipPath id="clip0_0_368">
<rect width="160" height="48" fill="white" transform="translate(0 0.280029)"/>
</clipPath>
</defs>
</svg>
