<svg width="160" height="49" viewBox="0 0 160 49" fill="none" xmlns="http://www.w3.org/2000/svg">
<g clip-path="url(#clip0_0_371)">
<path fill-rule="evenodd" clip-rule="evenodd" d="M19.8298 31.1047L28.1153 8.2832H37.0549L28.8421 31.1047C28.624 31.6862 27.9699 32.1222 27.3158 32.1222H18.5215C19.103 32.0495 19.6117 31.6862 19.8298 31.1047ZM82.8436 32.4856C78.9912 32.4856 76.5928 30.2326 76.5928 26.6712C76.5928 22.9646 78.7732 20.6388 82.3348 20.6388H82.6252C83.0612 20.6388 83.7156 20.6388 84.5148 20.7842V16.278H87.0588V32.1222C87.0588 32.1222 84.6604 32.4856 82.8436 32.4856ZM82.8436 22.6011C80.4452 22.6011 79.2093 23.9094 79.2093 26.5986C79.2093 28.997 80.6628 30.5233 82.9156 30.5233C83.3524 30.5233 83.8604 30.5233 84.5148 30.4506V22.7465C84.4708 22.7417 84.4276 22.7368 84.3844 22.7319L84.2708 22.7192L84.2692 22.719C83.7156 22.6566 83.2236 22.6011 82.8436 22.6011ZM48.4656 32.1222L41.7064 20.2754V32.1222H39.3807V17.1502H42.6512L49.4105 28.8516V17.1502H51.8089V32.1222H48.4656ZM70.0516 32.3402C68.8887 32.3402 67.7259 32.1949 66.2723 31.9042H66.1269V29.7965L66.3449 29.8691C67.5805 30.1598 68.6707 30.3779 69.7609 30.3779C70.6331 30.3779 72.6681 30.2326 72.6681 28.9243C72.6681 27.8341 71.2871 27.5434 70.1243 27.398H70.0516C69.9516 27.3647 69.8516 27.3466 69.7587 27.3298C69.6488 27.3101 69.5489 27.292 69.4702 27.2526C67.7985 26.8166 66.0542 26.1625 66.0542 23.9821C66.0542 21.8017 67.7985 20.5661 70.7784 20.5661C72.232 20.5661 73.2495 20.7114 74.049 20.8568L74.4851 20.9295V22.9646L74.2671 22.8918C74.0939 22.8652 73.9158 22.8362 73.7337 22.8064C72.9226 22.6739 72.0322 22.5285 71.1418 22.5285C69.9789 22.5285 68.5253 22.7465 68.5253 23.8367C68.5253 24.6717 69.5911 24.9071 70.83 25.1808L70.9964 25.2176L71.1719 25.258C73.0227 25.6826 75.1392 26.1681 75.1392 28.6336C75.2119 31.032 73.3222 32.3402 70.0516 32.3402ZM94.1084 32.3402C91.4924 32.3402 89.094 31.9042 89.094 28.5609C89.094 24.9269 92.8004 24.9269 95.0532 24.9269C95.1484 24.9269 95.3964 24.9407 95.6748 24.9564C96.0356 24.9765 96.4476 24.9996 96.6524 24.9996C96.6524 22.9646 96.6524 22.5285 93.6724 22.5285C92.51 22.5285 91.2012 22.7465 90.1116 22.9646L89.8932 23.0372V21.0022H90.0388C91.3468 20.7114 92.6548 20.6388 93.9636 20.6388C96.798 20.6388 99.1964 20.9295 99.1964 24.4182V32.1222H99.0508C97.0156 32.3402 95.4172 32.3402 94.1084 32.3402ZM94.9812 26.7439C92.8732 26.7439 91.4924 27.0346 91.4924 28.6336C91.4924 30.4506 93.1636 30.5959 94.7628 30.5959C95.1036 30.5959 95.618 30.571 96.0452 30.5504C96.3468 30.5358 96.6044 30.5233 96.7252 30.5233V26.8166C96.5028 26.8166 95.9532 26.7894 95.5268 26.7682C95.258 26.7548 95.0372 26.7439 94.9812 26.7439ZM58.9315 32.3402C56.3151 32.3402 53.9167 31.9042 53.9167 28.5609C53.9167 24.9269 57.6233 24.9269 59.8764 24.9269C59.9715 24.9269 60.2191 24.9407 60.498 24.9564C60.8581 24.9765 61.2706 24.9996 61.4754 24.9996C61.4754 22.9646 61.4754 22.5285 58.4955 22.5285C57.3326 22.5285 56.0243 22.7465 54.9342 22.9646L54.7161 23.0372V21.0022H54.8615C56.1697 20.7114 57.4779 20.6388 58.7862 20.6388C61.6207 20.6388 64.0191 20.9295 64.0191 24.4182V32.1222H63.8738C61.8387 32.3402 60.2398 32.3402 58.9315 32.3402ZM59.8037 26.7439C57.696 26.7439 56.3151 27.0346 56.3151 28.6336C56.3151 30.4506 57.9867 30.5959 59.5857 30.5959C59.9262 30.5959 60.4411 30.571 60.8678 30.5504C61.1695 30.5358 61.4276 30.5233 61.548 30.5233V26.8166C61.2716 26.8166 60.703 26.7874 60.2867 26.766L60.2855 26.7659C60.0458 26.7536 59.8568 26.7439 59.8037 26.7439ZM109.153 37.2098V32.2676C108.208 32.413 107.628 32.413 107.264 32.413C106.246 32.413 105.156 32.1949 104.284 31.8315C102.394 31.1047 101.232 29.0697 101.232 26.4532C101.232 25.145 101.522 22.8192 103.63 21.511C104.72 20.9295 105.956 20.6388 107.845 20.6388C108.149 20.6388 108.515 20.6545 108.908 20.6712C109.36 20.6906 109.849 20.7114 110.316 20.7114L111.77 20.7842V36.047C111.697 36.1196 109.153 37.2098 109.153 37.2098ZM107.628 22.6011C105.084 22.6011 103.776 23.9094 103.776 26.4532C103.776 29.7238 105.737 30.4506 107.336 30.4506C107.7 30.4506 108.208 30.4506 109.153 30.3052V22.6738C108.427 22.6011 108.064 22.6011 107.628 22.6011ZM17.7946 31.8315C18.3034 31.8315 18.7395 31.6135 19.0302 31.1774C19.0302 31.1465 19.0565 31.1156 19.0923 31.0734C19.1407 31.0166 19.2064 30.9393 19.2482 30.814L22.3007 22.4558L20.4838 17.5862C20.1931 16.7867 19.2482 16.4234 18.5214 16.7867C18.2307 16.8594 18.0127 17.0774 17.8673 17.2955C17.8673 17.3363 17.8215 17.4001 17.7683 17.4738C17.7269 17.5314 17.6811 17.5952 17.6492 17.6589L14.5967 26.0171L16.4137 30.9594C16.6317 31.4682 17.1405 31.8315 17.7946 31.8315ZM9.58186 16.278H18.4488C17.7947 16.278 17.2132 16.7141 16.9952 17.2955L8.7097 40.117H-0.22998L8.05554 17.2955C8.27362 16.7141 8.9277 16.278 9.58186 16.278Z" fill="white"/>
</g>
<defs>
<clipPath id="clip0_0_371">
<rect width="160" height="48" fill="white" transform="translate(0 0.280029)"/>
</clipPath>
</defs>
</svg>
