<svg width="160" height="49" viewBox="0 0 160 49" fill="none" xmlns="http://www.w3.org/2000/svg">
<g clip-path="url(#clip0_0_343)">
<g clip-path="url(#clip1_0_343)">
<path d="M15.9169 13.8462H12.7226V31.1063H15.9169V13.8462Z" fill="white"/>
<path d="M76.6048 18.761C75.4226 18.761 74.3525 19.0224 73.3936 19.5453C72.4348 20.0682 71.6945 20.8262 71.1714 21.8189C70.6483 22.8118 70.3867 23.8386 70.3867 24.8995C70.3867 26.2864 70.6483 27.4629 71.1714 28.4293C71.6945 29.3954 72.4573 30.1286 73.4619 30.6288C74.4658 31.129 75.5209 31.3791 76.628 31.3791C78.4166 31.3791 79.8999 30.7786 81.0779 29.5773C82.2567 28.3763 82.846 26.8624 82.846 25.0359C82.846 23.2248 82.2621 21.7262 81.095 20.5401C79.9279 19.354 78.4316 18.761 76.6048 18.761ZM78.7136 27.5731C78.1489 28.2096 77.4502 28.5279 76.6164 28.5279C75.7825 28.5279 75.0818 28.2096 74.5136 27.5731C73.9448 26.9364 73.6607 26.2675 73.6607 25.0701C73.6607 23.8728 73.9448 23.2036 74.5136 22.5671C75.0818 21.9304 75.7825 21.6121 76.6164 21.6121C77.4502 21.6121 78.1489 21.9304 78.7136 22.5671C79.2784 23.2036 79.5605 23.865 79.5605 25.0473C79.5605 26.2599 79.2784 26.9364 78.7136 27.5731Z" fill="white"/>
<path d="M22.7239 18.761C21.5416 18.761 20.4711 19.0224 19.5125 19.5453C18.5536 20.0682 17.813 20.8262 17.2901 21.8189C16.7672 22.8118 16.5058 23.8386 16.5058 24.8995C16.5058 26.2864 16.7672 27.4629 17.2901 28.4293C17.813 29.3954 18.5764 30.1286 19.5807 30.6288C20.5848 31.129 21.64 31.3791 22.7465 31.3791C24.5351 31.3791 26.0185 30.7786 27.197 29.5773C28.3754 28.3763 28.9647 26.8624 28.9647 25.0359C28.9647 23.2248 28.381 21.7262 27.2141 20.5401C26.0469 19.354 24.5502 18.761 22.7239 18.761ZM24.8325 27.5731C24.2679 28.2096 23.5688 28.5279 22.7352 28.5279C21.9014 28.5279 21.2006 28.2096 20.6322 27.5731C20.0638 26.9364 19.7796 26.2675 19.7796 25.0701C19.7796 23.8728 20.0638 23.2036 20.6322 22.5671C21.2006 21.9304 21.9014 21.6121 22.7352 21.6121C23.5688 21.6121 24.2679 21.9304 24.8325 22.5671C25.397 23.2036 25.6794 23.865 25.6794 25.0473C25.6794 26.2599 25.397 26.9364 24.8325 27.5731Z" fill="white"/>
<path d="M35.5848 21.6967C37.1452 21.6967 37.9988 22.7851 38.3122 23.6757L41.2315 22.8017C40.7697 21.3338 39.5493 18.761 35.437 18.761C31.5834 18.761 29.3239 21.774 29.3239 25.0701C29.3239 28.3661 31.5834 31.3791 35.437 31.3791C39.5493 31.3791 40.7697 28.8063 41.2315 27.3384L38.4113 26.4148C38.098 27.3054 37.1452 28.4435 35.5848 28.4435C34.0243 28.4435 32.573 27.1886 32.573 25.0701C32.573 22.9514 34.0243 21.6967 35.5848 21.6967Z" fill="white"/>
<path d="M102.983 19.0339H98.8019L94.6156 23.583V13.8462H91.3717V31.1063H94.6156V27.8861L95.9657 26.4228L99.1898 31.1063H103.229L98.2235 24.1213L102.983 19.0339Z" fill="white"/>
<path d="M67.6749 19.0339L65.5588 26.797L62.9959 19.0339H61.238H59.5793L57.0165 26.797L54.8011 19.0339H51.3722H49.0642L44.8779 23.583V13.8462H41.634V31.1063H44.8779V27.8861L46.2276 26.4228L49.4518 31.1063H53.4914L48.4858 24.1213L51.8449 20.5308L55.1842 31.1063H58.514L61.238 22.8463L63.9621 31.1063H67.2918L71.1038 19.0339H67.6749Z" fill="white"/>
<path d="M86.6171 20.7505V19.034H83.5016V31.1064H86.7455V27.3778C86.7455 25.3242 86.2729 21.6981 90.7919 22.2754V19.0021C88.235 18.7611 87.1252 19.9397 86.6171 20.7505Z" fill="white"/>
<path d="M107.482 23.6277C106.503 23.43 105.437 23.3749 105.437 22.3303C105.437 21.4177 106.492 21.1648 107.163 21.1648C107.834 21.1648 108.801 21.6486 108.966 22.7701L111.653 22.2039C111.495 20.89 110.341 18.6689 107.075 18.6689C104.876 18.6689 102.407 20.0103 102.407 22.467C102.407 25.09 104.513 25.9696 106.756 26.4424C108.999 26.9152 108.702 27.5964 108.702 27.8388C108.702 28.1951 108.306 28.9044 107.122 28.9044C105.938 28.9044 105.14 28.1797 104.865 27.1021L102.094 27.7069C102.578 29.8069 104.063 31.3792 107.086 31.3792C108.897 31.3792 111.77 30.7745 111.77 27.5859C111.77 24.3973 108.461 23.8254 107.482 23.6277Z" fill="white"/>
<path d="M4.01067 13.8462H-0.22998V18.0868H4.01067V13.8462Z" fill="white"/>
<path d="M4.01067 18.2356H-0.22998V22.4428H4.01067V18.2356Z" fill="white"/>
<path d="M4.01067 22.5918H-0.22998V26.7171H4.01067V22.5918Z" fill="white"/>
<path d="M4.01067 26.8657H-0.22998V31.1064H4.01067V26.8657Z" fill="white"/>
<path d="M8.32559 26.8657H4.15936V31.1064H7.66916C7.89084 31.1064 8.11006 31.0844 8.32559 31.0449V26.8657Z" fill="white"/>
<path d="M8.32559 22.5918H4.15936V26.7171H8.32559V22.5918Z" fill="white"/>
<path d="M4.15936 18.2356V22.4428H8.0852L8.32559 22.3501V18.2356H4.15936Z" fill="white"/>
<path d="M4.15936 18.0868H8.32559V13.9499C8.08431 13.8813 7.85567 13.8462 7.65264 13.8462H4.15936V18.0868Z" fill="white"/>
<path d="M8.47447 18.0869H11.363C11.3632 18.0715 11.3636 18.0563 11.3636 18.0409C11.3636 15.8137 9.77599 14.4321 8.47447 13.9963V18.0869Z" fill="white"/>
<path d="M8.47447 18.2356V22.2898C9.72368 21.755 11.2745 20.5131 11.3589 18.2356H8.47447Z" fill="white"/>
<path d="M8.47447 26.7171H11.8448C11.8448 26.7153 11.8449 26.7137 11.8449 26.7119C11.8449 24.3104 10.0845 22.9733 8.72374 22.5918H8.47447V26.7171Z" fill="white"/>
<path d="M8.47447 26.8657V31.0145C10.2792 30.6074 11.768 28.8797 11.8408 26.8657H8.47447Z" fill="white"/>
</g>
</g>
<defs>
<clipPath id="clip0_0_343">
<rect width="160" height="48" fill="white" transform="translate(0 0.280029)"/>
</clipPath>
<clipPath id="clip1_0_343">
<rect width="112" height="40.9756" fill="white" transform="translate(-0.22998 3.79224)"/>
</clipPath>
</defs>
</svg>
