<svg width="160" height="49" viewBox="0 0 160 49" fill="none" xmlns="http://www.w3.org/2000/svg">
<g clip-path="url(#clip0_0_387)">
<mask id="mask0_0_387" style="mask-type:luminance" maskUnits="userSpaceOnUse" x="-1" y="5" width="113" height="39">
<path d="M111.77 5H-0.22998V43.8439H111.77V5Z" fill="white"/>
</mask>
<g mask="url(#mask0_0_387)">
<path d="M10.863 24.2227C10.863 21.3765 12.6388 18.8708 15.8256 18.8708C17.9664 18.8708 19.4017 19.7953 20.2531 21.7171L18.5259 22.4469C17.9664 21.2062 17.1149 20.6467 15.8256 20.6467C13.9768 20.6467 12.8821 22.1306 12.8821 24.2227C12.8821 26.3148 13.9768 27.7987 15.8256 27.7987C17.0906 27.7987 17.9664 27.2392 18.5259 25.9986L20.2531 26.7283C19.3773 28.6259 17.9421 29.5503 15.8256 29.5503C12.6388 29.5503 10.863 27.0446 10.863 24.2227Z" fill="white"/>
<path d="M22.1505 24.2227C22.1505 21.3765 23.9264 18.8708 27.0889 18.8708C29.2297 18.8708 30.6649 19.7953 31.5163 21.7171L29.7891 22.4469C29.2297 21.2062 28.3782 20.6467 27.0889 20.6467C25.2401 20.6467 24.1454 22.1306 24.1454 24.2227C24.1454 26.3148 25.2401 27.7987 27.0889 27.7987C28.3539 27.7987 29.2297 27.2392 29.7891 25.9986L31.5163 26.7283C30.6649 28.6501 29.2297 29.5746 27.0889 29.5746C23.9508 29.5502 22.1505 27.0446 22.1505 24.2227Z" fill="white"/>
<path d="M33.2192 24.2227C33.2192 21.4738 34.922 18.8708 38.1818 18.8708C41.4659 18.8708 43.0715 21.3279 43.0715 23.9064V24.7336H35.2383C35.3113 26.5094 36.479 27.7987 38.2062 27.7987C39.6414 27.7987 40.6388 27.0689 41.2713 25.9256L42.8769 26.777C41.8552 28.6745 40.2982 29.5503 38.1818 29.5503C34.9707 29.5503 33.2192 27.0446 33.2192 24.2227ZM41.028 23.0551C40.7361 21.5954 39.7874 20.6223 38.1818 20.6223C36.6006 20.6223 35.6276 21.644 35.3356 23.0551H41.028Z" fill="white"/>
<path d="M46.6719 25.4876V16.7786H43.8743V15.0271H48.6666V25.3172C48.6666 27.0444 49.4208 27.7013 50.6371 27.7013C51.8048 27.7013 52.5589 26.9715 52.8265 25.4632L54.6023 25.8038C54.2374 28.3095 52.7535 29.5501 50.6371 29.5501C48.2531 29.5501 46.6719 28.0905 46.6719 25.4876Z" fill="white"/>
<path d="M56.5242 19.0411H58.5189V20.3061C58.9811 19.5763 60.1001 18.8708 61.4625 18.8708C64.552 18.8708 66.2061 21.0602 66.2061 24.2227C66.2061 27.3852 64.552 29.5502 61.4625 29.5502C60.1732 29.5502 59.0541 28.9178 58.5189 28.188V33.5641H56.5242V19.0411ZM64.1141 24.2227C64.1141 22.0576 62.995 20.6467 61.2192 20.6467C59.4677 20.6467 58.3487 22.0576 58.3487 24.2227C58.3487 26.3878 59.4677 27.7987 61.2192 27.7987C62.995 27.7987 64.1141 26.3878 64.1141 24.2227Z" fill="white"/>
<path d="M68.4202 24.2227C68.4202 21.3521 70.3417 18.8708 73.5042 18.8708C76.6668 18.8708 78.5882 21.3279 78.5882 24.2227C78.5882 27.0933 76.6668 29.5503 73.5042 29.5503C70.3417 29.5503 68.4202 27.0933 68.4202 24.2227ZM76.6182 24.2227C76.6182 22.3495 75.4989 20.6467 73.5042 20.6467C71.5096 20.6467 70.4148 22.3495 70.4148 24.2227C70.4148 26.0959 71.5335 27.7987 73.5042 27.7987C75.4989 27.7987 76.6182 26.0959 76.6182 24.2227Z" fill="white"/>
<path d="M80.3155 27.6527H83.77V20.7926H80.7777V19.0411H85.7892V27.6527H89.414V29.4042H80.3401V27.6527H80.3155ZM83.1375 16.2192C83.1375 15.3678 83.7946 14.7109 84.6459 14.7109C85.4973 14.7109 86.1537 15.3678 86.1537 16.2192C86.1537 17.0706 85.4973 17.7032 84.6459 17.7032C83.7946 17.6788 83.1375 17.0463 83.1375 16.2192Z" fill="white"/>
<path d="M91.8949 19.0411H93.8902V20.8656C94.6437 19.7222 95.9333 18.8708 97.3932 18.8708C99.4364 18.8708 100.555 20.1115 100.555 22.1063V29.3799H98.5605V22.6172C98.5605 21.2548 97.8555 20.6467 96.7847 20.6467C95.2277 20.6467 93.8902 22.3495 93.8902 25.2444V29.4043H91.8949V19.0411Z" fill="white"/>
<path d="M109.994 25.4391C109.751 26.9473 108.997 27.6772 107.805 27.6772C106.588 27.6772 105.834 27.0204 105.834 25.2932V20.8171H109.727V19.0412H105.834V16.0977H103.839V25.4878C103.839 28.0907 105.421 29.5503 107.805 29.5503C109.921 29.5503 111.405 28.3097 111.77 25.804L109.994 25.4391Z" fill="white"/>
<path d="M3.24875 30.7666H1.4729V33.5641H3.24875V30.7666Z" fill="white"/>
<path d="M7.26262 30.7666H5.51111V33.5641H7.26262V30.7666Z" fill="white"/>
<path d="M-0.22998 29.015L3.41902 19.041H5.55977L9.18443 29.015V29.3798H-0.22998V29.015ZM2.47028 27.6284H6.50853L4.4894 21.6926L2.47028 27.6284Z" fill="white"/>
</g>
</g>
<defs>
<clipPath id="clip0_0_387">
<rect width="160" height="48" fill="white" transform="translate(0 0.280029)"/>
</clipPath>
</defs>
</svg>
